<svg width="24" height="24" viewBox="0 0 24 24" fill="none" xmlns="http://www.w3.org/2000/svg">
<path fill-rule="evenodd" clip-rule="evenodd" d="M12 0C10.9864 0 10.1647 0.821689 10.1647 1.83529V10.1647H1.83529C0.821689 10.1647 0 10.9864 0 12C0 13.0136 0.821689 13.8353 1.83529 13.8353H10.1647V22.1647C10.1647 23.1783 10.9864 24 12 24C13.0136 24 13.8353 23.1783 13.8353 22.1647V13.8353H22.1647C23.1783 13.8353 24 13.0136 24 12C24 10.9864 23.1783 10.1647 22.1647 10.1647H13.8353V1.83529C13.8353 0.821689 13.0136 0 12 0Z" fill="white"/>
</svg>
